<?xml version="1.0" encoding="UTF-8"?>
<svg xmlns="http://www.w3.org/2000/svg" xmlns:xlink="http://www.w3.org/1999/xlink" viewBox="0 0 416.35 479.15">
  <defs>
    <style>
      .cls-1 {
        fill: url(#Degradado_sin_nombre_292);
        stroke: url(#Degradado_sin_nombre_287);
      }

      .cls-1, .cls-2, .cls-3 {
        stroke-miterlimit: 10;
      }

      .cls-4 {
        fill: url(#Degradado_sin_nombre_87-2);
      }

      .cls-5, .cls-3 {
        fill: none;
      }

      .cls-2 {
        fill: url(#Degradado_sin_nombre_248);
        stroke: url(#Degradado_sin_nombre_248-2);
      }

      .cls-6 {
        fill: url(#Degradado_sin_nombre_112);
      }

      .cls-7 {
        fill: url(#Degradado_sin_nombre_87);
      }

      .cls-8 {
        fill: url(#Degradado_sin_nombre_128);
      }

      .cls-3 {
        stroke: url(#Degradado_sin_nombre_124);
        stroke-width: 2px;
      }

      .cls-9 {
        fill: url(#Degradado_sin_nombre_183);
      }
    </style>
    <linearGradient id="Degradado_sin_nombre_87" data-name="Degradado sin nombre 87" x1="22.67" y1="256.63" x2="261.48" y2="256.63" gradientUnits="userSpaceOnUse">
      <stop offset=".2" stop-color="#016a98"/>
      <stop offset=".45" stop-color="#11789f"/>
      <stop offset=".82" stop-color="#07a4a5"/>
    </linearGradient>
    <linearGradient id="Degradado_sin_nombre_128" data-name="Degradado sin nombre 128" x1="138.63" y1="86.18" x2="229.53" y2="86.18" gradientUnits="userSpaceOnUse">
      <stop offset=".39" stop-color="#eb8e49"/>
      <stop offset=".77" stop-color="#f3ae50"/>
    </linearGradient>
    <linearGradient id="Degradado_sin_nombre_183" data-name="Degradado sin nombre 183" x1="285.78" y1="373.67" x2="444.99" y2="270.15" gradientUnits="userSpaceOnUse">
      <stop offset=".27" stop-color="#70408e"/>
      <stop offset=".46" stop-color="#a12f87"/>
      <stop offset=".88" stop-color="#b62784"/>
      <stop offset=".93" stop-color="#8d2f90"/>
    </linearGradient>
    <linearGradient id="Degradado_sin_nombre_248" data-name="Degradado sin nombre 248" x1="-10.92" y1="458.88" x2="329.25" y2="130.04" gradientUnits="userSpaceOnUse">
      <stop offset=".1" stop-color="#ee8e1a"/>
      <stop offset=".21" stop-color="#ef904c"/>
      <stop offset=".47" stop-color="#f3ae50"/>
    </linearGradient>
    <linearGradient id="Degradado_sin_nombre_248-2" data-name="Degradado sin nombre 248" x1="0" y1="339.02" x2="234.58" y2="339.02" xlink:href="#Degradado_sin_nombre_248"/>
    <linearGradient id="Degradado_sin_nombre_112" data-name="Degradado sin nombre 112" x1="81.49" y1="360.53" x2="272.06" y2="360.53" gradientUnits="userSpaceOnUse">
      <stop offset=".47" stop-color="#016a98"/>
      <stop offset=".67" stop-color="#11789f"/>
      <stop offset=".85" stop-color="#07a4a5"/>
    </linearGradient>
    <linearGradient id="Degradado_sin_nombre_292" data-name="Degradado sin nombre 292" x1="198.3" y1="122.58" x2="415.85" y2="122.58" gradientUnits="userSpaceOnUse">
      <stop offset=".11" stop-color="#02b1a7"/>
      <stop offset=".3" stop-color="#01aaa0"/>
      <stop offset=".45" stop-color="#05c89e"/>
    </linearGradient>
    <linearGradient id="Degradado_sin_nombre_287" data-name="Degradado sin nombre 287" x1="196.71" y1="122.39" x2="416.35" y2="122.39" gradientUnits="userSpaceOnUse">
      <stop offset=".13" stop-color="#02b1a7"/>
      <stop offset=".31" stop-color="#01aaa0"/>
      <stop offset=".45" stop-color="#05c89e"/>
    </linearGradient>
    <linearGradient id="Degradado_sin_nombre_87-2" data-name="Degradado sin nombre 87" x1="21.87" y1="255.82" x2="262.6" y2="255.82" xlink:href="#Degradado_sin_nombre_87"/>
    <linearGradient id="Degradado_sin_nombre_124" data-name="Degradado sin nombre 124" x1="137.68" y1="85.98" x2="230.48" y2="85.98" gradientUnits="userSpaceOnUse">
      <stop offset=".38" stop-color="#eb8e49"/>
      <stop offset=".6" stop-color="#f3ae50"/>
    </linearGradient>
  </defs>
  <g id="Capa_3" data-name="Capa 3">
    <path class="cls-7" d="m22.67,349.19s67.79-92.13,75.16-98.34l28.9-33.88s33.59-36.32,33.72-36.47c17.05-18.44,39.02-20.96,61.29-9.65,22.76,11.57,34.98,33.52,38.4,58.09.65,4.69,1.72,9.86,1.21,14.58-.8,7.54-9.09-6.04-10.36-7.58-2.62-3.18-5.4-6.22-8.34-9.1-7.9-7.76-17.05-14.69-27.48-18.63s-26.28-5.27-35.91,2.03l-23.62,17.89-40.36,33.71-24.08,19.95-25.91,23.39-7.8,7.34-8.48,7.95-5.96,5.96-3.44,3.34-3.44,3.58s-2.84,2.84-6.22,6.88l-3.12,3.7-4.17,5.25Z"/>
    <path class="cls-8" d="m139.9,75.13s8.25-35.46,42.5-35.46c0,0,23.85-2.45,40.36,21.4,0,0,17.12,30.57-3.06,52.89,0,0-17.73,22.32-39.44,18.34,0,0-33.02-2.57-40.36-35.53,0,0-2.86-13.64,0-21.65Z"/>
    <path class="cls-9" d="m335.26,434.06s18.96,19.57,31.18,3.06c8.53-26.3,14.42-51.49,17.91-78.95,2.52-19.84,3.46-39.94.16-59.75-3.56-21.37-10.85-40.72-35.28-42.85-11.56-1.01-22.8-.26-34.32-2.12-2.28-.37-20.42-4.55-21.54-1.92,0,0-17.56,40.62-17.58,40.66.64-1.47,36.05,19.84,39.14,22.62,12.28,11.01,18.6,27.27,20.32,43.42,0,0,4.89,22.62,2.75,55.03l-2.75,20.79Z"/>
    <path class="cls-2" d="m2.01,450.08s39.01-28.7,57.37-47.06c0,0,12.94-12.73,13.83-13.65s21.37-23.45,21.6-23.73,24.9-32.61,24.9-32.61l18.31-30.33s21.13-40.09,24.03-68.12c0,0,43.94-21.88,71.88,11.73l.12,1.52-11.01,17.12-25.71,37.28s-50.39,71.24-105.13,108.39c0,0-23.03,15.65-24.97,16.01,0,0-7.24,4.87-26.34,12.74l-8.92,3.33-14.03,4.19-7.14,1.64-8.8,1.55Z"/>
    <path class="cls-6" d="m81.49,479.15s17.64-3.94,17.64-3.94c58.08-14.16,118.79-53.1,123.77-118.12.63-8.29.24-16.67-1.47-24.81-2.76-13.21-9.62-21.93-18.7-31.35l-2.11-1.68s-.74-.48-.74-.48c12.29-18.7,25.99-37.08,36.47-56.87-1.42,2.71,4.99,7.53,6.46,9.3,13.18,15.88,20.04,37.06,24.66,56.83,6.02,25.73,6.48,53.88-.83,79.39-7.1,24.77-22.75,41.09-42.18,56.87,0,0-30.67,24.9-101.91,31.52l-41.06,3.33Z"/>
    <path class="cls-1" d="m278.55,244.65l2.21-8.91,1.4-8.15,1.09-10.25s.52-16.48.52-16.48c-.31-17.64-1.87-35.28-6.59-52.29-3.51-12.64-2.03-25.59,2.63-37.78l6.28-12.9s16.99-30.73,54.34-49.63c8.97-4.54,18.18-8.64,27.25-12.95,9.35-4.44,19.17-7.76,28.83-11.44,5.9-2.25,18.86-5.19,19.32-13.5.36-6.45-6.95-10.03-12.31-9.85-12.6.41-25.94,4.35-37.95,7.73-21.24,5.98-42.83,13.91-62.04,25.39-18.07,10.8-32.65,25.92-45.57,42.36-11.52,14.67-21.8,30.25-33.5,44.71l-7.05,8.28-1.13,1.27-1.58,1.75-2.37,2.55-2.21,2.29-4.16,4.12-2.33,1.96-.37.31-.33.27-.43.34-.27.21-.32.24-.93.62-2.69,1.58,4.05.38s10.09.76,21.25,4.82,22.09,10.7,28.05,17.43l6.11,6.73s13.14,16.05,17.58,38.21c1.7,8.5,5.36,21.84,3.21,30.58Z"/>
  </g>
  <g id="lineas">
    <path class="cls-4" d="m22.67,349.19c18.93-25.53,37.15-51.59,56.89-76.53,19.68-24.96,40.03-49.43,61.61-72.81,5.38-5.85,10.96-11.54,16.47-17.25,5.53-5.69,11.28-11.44,18.37-15.45,3.54-1.98,7.41-3.44,11.44-4.13,4.02-.67,8.09-.72,12.12-.33,8.06.8,15.83,3.41,22.97,7.1,7.13,3.71,13.74,8.47,19.3,14.34,2.73,2.97,5.17,6.2,7.35,9.59,2.1,3.44,3.97,7.01,5.53,10.72,3.09,7.43,5.14,15.25,6.33,23.17,1.22,7.92,1.61,15.94,1.5,23.92l-1.93-.03c-.02-.55-.25-1.24-.55-1.91-.15-.34-.35-.67-.52-1.01l-.61-.99c-.85-1.32-1.83-2.59-2.83-3.83-2-2.49-4.24-4.88-6.26-7.44-4.1-4.96-8.6-9.61-13.5-13.77-4.88-4.19-10.18-7.9-15.87-10.83-5.69-2.93-11.85-4.96-18.18-5.59-6.34-.59-12.76.41-18.55,3.09-5.85,2.56-11.06,6.43-16.08,10.47-2.51,2.04-4.98,4.13-7.47,6.22-2.49,2.1-5.05,4.13-7.58,6.15l-15.19,12.18c-20.2,16.31-40.14,32.93-59.57,50.14-9.73,8.59-19.29,17.37-28.71,26.3-9.4,8.93-18.59,18.17-26.45,28.51Zm0,0c7.75-10.43,16.84-19.78,26.15-28.83,9.32-9.04,18.8-17.93,28.43-26.64,19.26-17.43,39.17-34.13,59.26-50.6l15.12-12.29c2.53-2.05,5.05-4.07,7.51-6.17,2.47-2.1,4.94-4.22,7.45-6.29,5.05-4.1,10.37-8.06,16.44-10.74,3.02-1.34,6.19-2.41,9.49-2.92,3.29-.53,6.63-.64,9.93-.35,6.61.65,12.99,2.75,18.84,5.74,5.85,3.01,11.27,6.78,16.25,11.04,5,4.23,9.58,8.94,13.76,13.97,2.01,2.54,4.22,4.87,6.29,7.44,1.03,1.28,2.04,2.58,2.96,3.99l.66,1.08c.2.38.41.75.6,1.15.36.81.7,1.66.74,2.75l-1.93-.03c.1-7.9-.31-15.81-1.52-23.6-1.19-7.78-3.19-15.45-6.19-22.71-1.51-3.62-3.33-7.1-5.36-10.45-2.11-3.3-4.47-6.43-7.11-9.32-5.35-5.68-11.81-10.36-18.76-13.99-6.96-3.61-14.51-6.16-22.29-6.94-3.88-.39-7.82-.34-11.63.29-3.81.64-7.48,2.02-10.88,3.9-6.82,3.82-12.48,9.44-18,15.1-5.55,5.71-11.09,11.36-16.51,17.17-21.69,23.19-42.17,47.51-62,72.34-19.95,24.73-38.5,50.56-57.7,75.89Z"/>
    <path class="cls-5" d="m198.3,146.51s12.84-2.75,66.04-79.34c14.44-20.78,42.14-36.04,64.4-46.06,12.14-5.46,24.76-9.84,37.64-13.17,7.34-1.9,14.77-3.45,22.26-4.69,8.03-1.32,18.89-6.26,24.82,1.52,5.48,7.19,1.12,13.23-6.95,15.62,0,0-86.68,25.68-113.73,67.41-3.36,5.19-7,9.95-9.75,15.56-5.68,11.6-8.94,24.64-7.53,37.59.76,6.97,3.53,13.67,4.71,20.6.81,4.8,1.48,9.62,2.01,14.46,1.59,14.26,2.12,28.72.91,43.03-.73,8.64-2.12,17.27-4.57,25.6,0,0,4.59-91.72-80.25-98.14Z"/>
    <path class="cls-5" d="m2.01,450.11s138.5-92.08,160.05-215.49c0,0,43.57-22.06,72,11.87,0,0-103.18,184.82-232.05,203.62Z"/>
    <path class="cls-5" d="m275.8,291.43c.92-2.29,17.43-39.9,17.43-39.9l51.36,4.91s30.27-4,35.77,23.52c0,0,21.1,51.82-13.3,156.38,0,0-11.01,17.43-31.18-2.75,0,0,15.81-100.43-28.78-125.2l-31.29-16.97Z"/>
    <ellipse class="cls-3" cx="184.08" cy="85.98" rx="45.4" ry="46.78"/>
  </g>
</svg>